<?xml version="1.0" encoding="UTF-8"?>
<svg version="1.1" xmlns="http://www.w3.org/2000/svg" width="90" height="90">
<path d="M0 0 C19.92658418 -0.65293419 19.92658418 -0.65293419 25.81640625 4.62890625 C29.71303021 8.79484331 32.56792176 13.42855499 35.3984375 18.35546875 C37.72911855 22.20393477 40.42062773 25.75890364 43.09765625 29.37109375 C45.58788282 32.81241302 47.80509464 36.364688 50 40 C53.94091511 36.52910229 56.20216621 32.51161266 58.75 28 C73.26318519 2.9122716 73.26318519 2.9122716 82 0 C83.39439664 -0.06665376 84.79169875 -0.08538199 86.1875 -0.0625 C88.0746875 -0.0315625 88.0746875 -0.0315625 90 0 C90 3.96 90 7.92 90 12 C88.4221875 12.2475 88.4221875 12.2475 86.8125 12.5 C83.23957281 13.47311432 81.98166424 15.00360069 80.0625 18.125 C79.35401849 19.40527848 78.65923515 20.69368149 78 22 C78.36351563 21.50628906 78.72703125 21.01257813 79.1015625 20.50390625 C79.85566406 19.54291016 79.85566406 19.54291016 80.625 18.5625 C81.11226563 17.92441406 81.59953125 17.28632813 82.1015625 16.62890625 C84.61572767 14.47169045 86.75782371 14.32240128 90 14 C92.09277423 25.96474967 87.20131913 33.05555039 80.66015625 42.57373047 C78.95327223 45.06829127 77.30198048 47.59365653 75.65625 50.12890625 C74.54385838 51.81655085 73.42932662 53.50278705 72.3125 55.1875 C71.80307861 55.96496582 71.29365723 56.74243164 70.76879883 57.54345703 C66.75188064 63.44741048 61.97369309 69.67543564 55 72 C49.03523706 72.53385142 44.04254405 72.55270149 39 69 C34.25682448 64.36222838 31.08128807 58.95981999 27.75439453 53.27148438 C23.21822644 45.55565327 18.19964375 38.16561532 13.18579102 30.75488281 C12.11764418 29.17410466 11.05827105 27.58740657 10 26 C7.57478506 25.41810734 7.57478506 25.41810734 4.875 25.3125 C3.26625 25.209375 1.6575 25.10625 0 25 C0 21.37 0 17.74 0 14 C2.39706123 13.89145383 4.78915838 13.81246843 7.1875 13.75 C7.86103516 13.71648438 8.53457031 13.68296875 9.22851562 13.6484375 C12.99375127 13.57496949 14.83108854 13.88606757 17.98828125 16.015625 C18.65214844 16.67046875 19.31601562 17.3253125 20 18 C15.66344971 13.36437728 12.55006975 12.86980681 6.3125 12.4375 C5.13300781 12.35371094 3.95351563 12.26992188 2.73828125 12.18359375 C1.83464844 12.12300781 0.93101562 12.06242187 0 12 C0 8.04 0 4.08 0 0 Z M22 20 C23 22 23 22 23 22 Z M76 23 C71.53057584 28.65328949 67.75793703 34.86011585 64 41 C63.59007812 41.6587915 63.18015625 42.31758301 62.7578125 42.99633789 C61.77440217 44.62723067 60.87862047 46.31034524 60 48 C60.33 48.66 60.66 49.32 61 50 C63.29861438 46.44193835 65.58765005 42.87781161 67.875 39.3125 C68.52597656 38.30509766 69.17695312 37.29769531 69.84765625 36.25976562 C70.47285156 35.28330078 71.09804687 34.30683594 71.7421875 33.30078125 C72.60626221 31.95753784 72.60626221 31.95753784 73.48779297 30.5871582 C74.93464513 28.11181232 76.01314098 25.68739077 77 23 C76.67 23 76.34 23 76 23 Z M25 24 C25.33 24.99 25.66 25.98 26 27 C26 26.01 26 25.02 26 24 C25.67 24 25.34 24 25 24 Z M27 27 C28 29 28 29 28 29 Z M31 35 C31.33 35.99 31.66 36.98 32 38 C32 37.01 32 36.02 32 35 C31.67 35 31.34 35 31 35 Z M33 38 C34 40 34 40 34 40 Z M35 41 C36 43 36 43 36 43 Z M37 44 C38 46 38 46 38 46 Z M38 46 C38.33 46.99 38.66 47.98 39 49 C39 48.01 39 47.02 39 46 C38.67 46 38.34 46 38 46 Z M40 49 C40.33 49.99 40.66 50.98 41 52 C41 51.01 41 50.02 41 49 C40.67 49 40.34 49 40 49 Z M59 50 C58.46375 50.969375 57.9275 51.93875 57.375 52.9375 C55 56 55 56 51.4375 56.9375 C48 57 48 57 45 56 C45.33 56.99 45.66 57.98 46 59 C48.925916 60.462958 50.75617347 60.44523109 54 60 C57.06467828 57.00342569 59.49566512 54.37090233 60 50 C59.67 50 59.34 50 59 50 Z M43 53 C43.33 53.99 43.66 54.98 44 56 C44 55.01 44 54.02 44 53 C43.67 53 43.34 53 43 53 Z " fill="#65818D" transform="translate(0,7)"/>
<path d="M0 0 C2.09277423 11.96474967 -2.79868087 19.05555039 -9.33984375 28.57373047 C-11.04672777 31.06829127 -12.69801952 33.59365653 -14.34375 36.12890625 C-15.45614162 37.81655085 -16.57067338 39.50278705 -17.6875 41.1875 C-18.19692139 41.96496582 -18.70634277 42.74243164 -19.23120117 43.54345703 C-23.24811936 49.44741048 -28.02630691 55.67543564 -35 58 C-40.96476294 58.53385142 -45.95745595 58.55270149 -51 55 C-55.74317552 50.36222838 -58.91871193 44.95981999 -62.24560547 39.27148438 C-66.78177356 31.55565327 -71.80035625 24.16561532 -76.81420898 16.75488281 C-77.88235582 15.17410466 -78.94172895 13.58740657 -80 12 C-82.42521494 11.41810734 -82.42521494 11.41810734 -85.125 11.3125 C-86.03507812 11.24675781 -86.94515625 11.18101563 -87.8828125 11.11328125 C-88.93082031 11.05720703 -88.93082031 11.05720703 -90 11 C-90 8.03 -90 5.06 -90 2 C-84.72 2 -79.44 2 -74 2 C-74 2.66 -74 3.32 -74 4 C-73.08976074 4.38961914 -73.08976074 4.38961914 -72.16113281 4.78710938 C-69.80535595 6.1092399 -68.89156811 7.17136444 -67.421875 9.40625 C-66.76445313 10.39818359 -66.76445313 10.39818359 -66.09375 11.41015625 C-65.6503125 12.09980469 -65.206875 12.78945313 -64.75 13.5 C-64.29109375 14.18964844 -63.8321875 14.87929688 -63.359375 15.58984375 C-60 20.71888951 -60 20.71888951 -60 23 C-59.01 23.33 -58.02 23.66 -57 24 C-55.415211 26.20352798 -53.97312084 28.37728456 -52.5625 30.6875 C-51.79343205 31.92086193 -51.0239044 33.15393734 -50.25390625 34.38671875 C-49.8789502 34.98919434 -49.50399414 35.59166992 -49.11767578 36.21240234 C-46.28256183 41.34853413 -46.28256183 41.34853413 -42 45 C-39.08461971 45.50042146 -39.08461971 45.50042146 -36 45 C-32.72580742 41.455703 -30.35129794 37.40210712 -27.9375 33.25 C-24.49586557 27.4345483 -20.96023298 21.68858479 -17.3125 16 C-16.87349365 15.30680664 -16.4344873 14.61361328 -15.98217773 13.89941406 C-7.01259686 0 -7.01259686 0 0 0 Z " fill="#AE3249" transform="translate(90,21)"/>
<path d="M0 0 C14.85644626 -1.03249433 14.85644626 -1.03249433 19.0625 2.4375 C22.05216097 5.65004057 24.39807501 9.38385051 26.640625 13.14453125 C27.94779719 15.30392673 27.94779719 15.30392673 31 16 C32.6875 19.0625 32.6875 19.0625 34 22 C32.68 22.33 31.36 22.66 30 23 C29.64695801 22.45996338 29.29391602 21.91992676 28.93017578 21.36352539 C27.33325632 18.92666095 25.72923702 16.4945527 24.125 14.0625 C23.56941406 13.21236328 23.01382812 12.36222656 22.44140625 11.48632812 C21.90644531 10.67744141 21.37148438 9.86855469 20.8203125 9.03515625 C20.32805176 8.2862915 19.83579102 7.53742676 19.32861328 6.76586914 C18.10536627 4.86691253 18.10536627 4.86691253 16 4 C16 3.34 16 2.68 16 2 C10.72 2 5.44 2 0 2 C0 1.34 0 0.68 0 0 Z " fill="#C06072" transform="translate(0,21)"/>
<path d="M0 0 C1 4 1 4 0.19555664 5.73925781 C-0.22862549 6.30483398 -0.65280762 6.87041016 -1.08984375 7.453125 C-1.54423828 8.071875 -1.99863281 8.690625 -2.46679688 9.328125 C-2.95212891 9.96234375 -3.43746094 10.5965625 -3.9375 11.25 C-4.41896484 11.8996875 -4.90042969 12.549375 -5.39648438 13.21875 C-6.58635642 14.82095394 -7.79173028 16.41162434 -9 18 C-9.66 17.67 -10.32 17.34 -11 17 C-5.555 8.585 -5.555 8.585 0 0 Z " fill="#C77483" transform="translate(73,37)"/>
<path d="M0 0 C0.33 0.66 0.66 1.32 1 2 C0.13549805 3.86352539 0.13549805 3.86352539 -1.23828125 6.09765625 C-1.72876953 6.89880859 -2.21925781 7.69996094 -2.72460938 8.52539062 C-3.24861328 9.36263672 -3.77261719 10.19988281 -4.3125 11.0625 C-4.82490234 11.90361328 -5.33730469 12.74472656 -5.86523438 13.61132812 C-9.73045736 19.86522868 -9.73045736 19.86522868 -12 21 C-10.54488901 15.63114222 -7.99676879 11.63713641 -4.875 7.125 C-4.40707031 6.43664063 -3.93914062 5.74828125 -3.45703125 5.0390625 C-2.31098303 3.35507328 -1.15635521 1.6769284 0 0 Z " fill="#CA7D8B" transform="translate(89,32)"/>
<path d="M0 0 C1.051875 0.99 1.051875 0.99 2.125 2 C5.49827337 4.34662495 6.97749297 4.59909679 11 4 C13.34261608 2.62073227 13.34261608 2.62073227 15 1 C13.84826645 3.46800047 12.95216435 5.04783565 11 7 C7.34280707 7.33862898 4.86317055 7.44265157 1.5625 5.75 C0 4 0 4 0 0 Z " fill="#C87786" transform="translate(43,62)"/>
<path d="M0 0 C7.4375 5.3125 7.4375 5.3125 9 10 C7.68 10.33 6.36 10.66 5 11 C4.15841464 9.73461631 3.32700252 8.46246221 2.5 7.1875 C1.80390625 6.12595703 1.80390625 6.12595703 1.09375 5.04296875 C0 3 0 3 0 0 Z " fill="#BA939F" transform="translate(25,33)"/>
<path d="M0 0 C3.08693704 1.35852131 5.08641734 2.84510953 7.3125 5.375 C7.84488281 5.96023437 8.37726562 6.54546875 8.92578125 7.1484375 C10 9 10 9 9.66796875 11.2265625 C9.44753906 11.81179687 9.22710937 12.39703125 9 13 C8.60167969 12.38511719 8.20335937 11.77023438 7.79296875 11.13671875 C7.26316406 10.32847656 6.73335937 9.52023438 6.1875 8.6875 C5.40439453 7.48673828 5.40439453 7.48673828 4.60546875 6.26171875 C3.19560965 4.27556687 1.73440027 2.69273299 0 1 C0 0.67 0 0.34 0 0 Z " fill="#C56F7F" transform="translate(15,22)"/>
</svg>
